<svg width="24" height="21" viewBox="0 0 24 21" fill="none" xmlns="http://www.w3.org/2000/svg">
<path d="M5.95796 4.5533C2.7044 7.05891 0.0258203 9.13446 0.00244699 9.17186C-0.0256009 9.2186 0.184758 9.52713 0.773765 10.2938C1.22253 10.8734 1.60585 11.3502 1.62923 11.3549C1.64793 11.3549 3.98058 9.57388 6.80407 7.40016L11.9415 3.45008L17.079 7.40016C19.9025 9.57388 22.2351 11.3549 22.2538 11.3549C22.3052 11.3502 23.8806 9.3121 23.8993 9.22795C23.9086 9.19055 23.156 8.58285 22.2304 7.86763L20.5429 6.57275V4.40371V2.23934H18.7899H17.0369L17.0275 3.04806L17.0135 3.85677L14.5126 1.93081C13.1382 0.869668 11.9789 0.000183105 11.9415 0.000183105C11.9041 0.000183105 9.21152 2.04768 5.95796 4.5533Z" fill="#F3AE9F"/>
<path d="M7.02647 19.5403L9.85273 19.5483V16.9177V13.7856V13.2856H10.3527H12.0823H13.812H14.312V13.7856V16.9177V19.5482L17.0026 19.5403L17.0033 19.5403L19.6945 19.5285L19.7069 15.7666V15.7661L19.7157 11.7594L15.8025 8.74545C14.6718 7.87637 13.6373 7.08595 12.8819 6.51368C12.504 6.22738 12.1969 5.9965 11.9829 5.8379C11.9661 5.82545 11.9499 5.81347 11.9344 5.80199C11.9183 5.81392 11.9015 5.82638 11.8841 5.83934C11.6703 5.99836 11.3638 6.22925 10.9868 6.51524C10.2331 7.08693 9.20107 7.87613 8.07291 8.74501C8.07285 8.74506 8.07279 8.7451 8.07273 8.74515L4.16851 11.759L4.17732 15.7661L4.17732 15.7666L4.18971 19.5284L7.02578 19.5403L7.02647 19.5403Z" fill="#F3AE9F" stroke="black"/>
</svg>
