<svg width="20" height="20" viewBox="0 0 20 20" fill="none" xmlns="http://www.w3.org/2000/svg">
<path d="M10.7097 0.673821C10.4034 0.856822 10.3847 1.05103 10.5827 1.79797C10.7731 2.50756 10.7881 2.54491 10.9263 2.67562C11.0159 2.76152 11.0757 2.78393 11.2699 2.79513C11.5686 2.8138 11.7255 2.7167 11.8375 2.45154L11.9122 2.27227L11.7516 1.64858C11.5649 0.924046 11.5089 0.797066 11.3371 0.685025C11.1728 0.572984 10.8815 0.56925 10.7097 0.673821Z" fill="white"/>
<path d="M13.8845 1.76442C13.821 1.81297 13.3616 2.39559 12.8649 3.0641C12.3682 3.73261 11.9387 4.30029 11.9163 4.32643C11.8789 4.36378 11.5876 4.25173 10.4149 3.74755C9.23478 3.23963 8.93227 3.12385 8.79408 3.12385C8.45422 3.12759 8.23388 3.3442 8.23388 3.67286C8.23388 3.82598 8.33471 4.09488 8.8501 5.29372C9.18996 6.08174 9.46633 6.74278 9.46633 6.76145C9.46633 6.77639 8.88745 7.22082 8.18159 7.74741C6.80349 8.77446 6.77734 8.8006 6.77734 9.12552C6.77734 9.32719 6.89312 9.51766 7.07612 9.61103C7.16949 9.65585 7.64753 9.7268 8.76794 9.85752C9.63065 9.95836 10.3402 10.0517 10.3477 10.0592C10.3589 10.0704 10.4486 10.78 10.5494 11.639C10.6838 12.7706 10.7548 13.2412 10.7996 13.3345C10.893 13.5175 11.0835 13.6333 11.2851 13.6333C11.61 13.6333 11.6362 13.6072 12.6632 12.2291C13.1898 11.5232 13.6343 10.9443 13.6492 10.9443C13.6679 10.9443 14.3289 11.2207 15.1169 11.5605C16.3158 12.0759 16.5847 12.1768 16.7378 12.1768C17.0664 12.1768 17.2831 11.9564 17.2868 11.6166C17.2868 11.4784 17.171 11.1759 16.6631 9.9957C16.1552 8.81927 16.0469 8.5317 16.0842 8.49435C16.1104 8.47195 16.678 8.04245 17.3465 7.54574C18.0151 7.05276 18.5977 6.59339 18.6462 6.52617C18.7545 6.37304 18.762 6.05559 18.6574 5.88753C18.5192 5.66345 18.4782 5.65598 16.7602 5.45057C15.8825 5.346 15.158 5.25637 15.1543 5.25637C15.1543 5.25263 15.0646 4.5281 14.9601 3.64671C14.7547 1.92128 14.7435 1.88393 14.5156 1.74575C14.3513 1.65238 14.0339 1.65985 13.8845 1.76442Z" fill="white"/>
<path d="M17.2515 2.38856C17.0759 2.47072 16.2468 3.29983 16.1908 3.45295C16.0377 3.84883 16.2991 4.25964 16.7025 4.25964C16.9564 4.25964 17.0722 4.18121 17.5577 3.68823C18.0432 3.19899 18.1254 3.05334 18.0768 2.78817C18.0283 2.53795 17.7594 2.3176 17.5054 2.3176C17.4494 2.3176 17.3336 2.35121 17.2515 2.38856Z" fill="white"/>
<path d="M5.9605 5.4171C5.89327 5.45819 5.80737 5.54408 5.76629 5.61131C5.62437 5.84286 5.69907 6.24247 5.90821 6.38066C6.05013 6.47402 7.14066 6.7616 7.35354 6.7616C7.47678 6.7616 7.58136 6.73545 7.66352 6.6869C7.79423 6.60474 7.93242 6.35825 7.93242 6.20139C7.93242 6.05947 7.8017 5.80551 7.6934 5.73455C7.56268 5.64866 6.41986 5.34241 6.23313 5.34241C6.15097 5.34241 6.03146 5.37602 5.9605 5.4171Z" fill="white"/>
<path d="M17.9174 8.59149C17.6859 8.69606 17.6 8.85291 17.6149 9.14049C17.6261 9.33469 17.6485 9.39071 17.7344 9.48408C17.8651 9.62226 17.9025 9.6372 18.6121 9.82767C19.2208 9.98826 19.3889 9.99947 19.5719 9.87996C19.8894 9.67455 19.8931 9.11808 19.5794 8.91267C19.486 8.85291 18.2722 8.51679 18.149 8.51679C18.1079 8.51679 18.0033 8.5504 17.9174 8.59149Z" fill="white"/>
<path d="M4.32169 14.4625C1.82691 16.9611 0.721435 18.0927 0.702762 18.1636C0.691558 18.2196 0.687823 18.3541 0.695292 18.4587C0.713966 18.6417 0.72517 18.6529 1.24056 19.172L1.76715 19.6986L1.9875 19.7135C2.14062 19.7247 2.24146 19.7098 2.31615 19.6724C2.37591 19.6388 4.03038 18.003 5.99483 16.0348L9.56521 12.457L9.47931 11.7511C9.43076 11.3627 9.38594 11.0415 9.37847 11.0341C9.35606 11.0117 8.19831 10.8698 8.04518 10.8698C7.92194 10.8698 7.72773 11.0565 4.32169 14.4625Z" fill="white"/>
<path d="M13.9469 12.5576C13.749 12.6584 13.6407 12.8264 13.6407 13.0431C13.6369 13.2373 13.9282 14.3315 14.0216 14.4847C14.156 14.705 14.5594 14.7872 14.7984 14.6415C14.959 14.5407 15.0673 14.3577 15.0673 14.1747C15.0673 13.9879 14.7611 12.8451 14.6752 12.7144C14.6042 12.6061 14.3503 12.4791 14.2083 12.4754C14.156 12.4754 14.0365 12.5127 13.9469 12.5576Z" fill="white"/>
</svg>
