<svg width="20" height="20" viewBox="0 0 20 20" fill="none" xmlns="http://www.w3.org/2000/svg">
<path d="M3.18131 2.06895L3.05434 2.19592V2.66644V3.13695H2.58382H2.11331L1.98634 3.26392C1.87431 3.37595 1.85938 3.41329 1.85938 3.58507C1.85938 3.75684 1.87431 3.79419 1.98634 3.90622L2.11331 4.03318H2.58382H3.05434V4.5037V4.97422L3.18131 5.10118C3.29334 5.21321 3.33068 5.22815 3.50246 5.22815C3.67423 5.22815 3.71158 5.21321 3.8236 5.10118L3.95057 4.97422V4.5037V4.03318H4.42109H4.89161L5.01857 3.90622C5.1306 3.79419 5.14554 3.75684 5.14554 3.58507C5.14554 3.41329 5.1306 3.37595 5.01857 3.26392L4.89161 3.13695H4.42109H3.95057V2.66644V2.19592L3.8236 2.06895C3.71158 1.95692 3.67423 1.94199 3.50246 1.94199C3.33068 1.94199 3.29334 1.95692 3.18131 2.06895Z" fill="white"/>
<path d="M13.7232 2.27811C13.3461 2.34159 13.2042 2.44988 12.2706 3.38719L11.3818 4.27595L13.193 6.08707L15.0041 7.89819L15.8966 7.00197C16.9608 5.9265 17.0019 5.86675 17.0019 5.30287C17.0019 4.72406 16.972 4.68298 15.8331 3.53656C15.3066 3.00256 14.8136 2.53204 14.7427 2.48723C14.4551 2.30051 14.063 2.22209 13.7232 2.27811Z" fill="white"/>
<path d="M7.36393 3.26396L7.23696 3.39092V3.86144V4.33196H6.76644H6.29592L6.16896 4.45893C6.05693 4.57096 6.04199 4.6083 6.04199 4.78007C6.04199 4.95185 6.05693 4.98919 6.16896 5.10122L6.29592 5.22819H6.76644H7.23696V5.69871V6.16923L7.36393 6.29619C7.47595 6.40822 7.5133 6.42316 7.68507 6.42316C7.85685 6.42316 7.89419 6.40822 8.00622 6.29619L8.13319 6.16923V5.69871V5.22819H8.60371H9.07422L9.20119 5.10122C9.31322 4.98919 9.32816 4.95185 9.32816 4.78007C9.32816 4.6083 9.31322 4.57096 9.20119 4.45893L9.07422 4.33196H8.60371H8.13319V3.86144V3.39092L8.00622 3.26396C7.89419 3.15193 7.85685 3.13699 7.68507 3.13699C7.5133 3.13699 7.47595 3.15193 7.36393 3.26396Z" fill="white"/>
<path d="M7.0276 8.63397C4.97001 10.6953 3.26718 12.4168 3.24477 12.4653C3.17756 12.5923 2.64355 15.6693 2.64355 15.9121C2.64355 16.3266 2.96097 16.6328 3.39041 16.6291C3.58086 16.6253 6.38903 16.1436 6.73259 16.054C6.86329 16.0204 7.36368 15.5312 10.6349 12.2637L14.3879 8.51447L12.5767 6.70335L10.7656 4.89222L7.0276 8.63397Z" fill="white"/>
<path d="M16.3258 9.83629L16.1989 9.96325V10.4338V10.9043H15.7284H15.2578L15.1309 11.0313C15.0188 11.1433 15.0039 11.1806 15.0039 11.3524C15.0039 11.5242 15.0188 11.5615 15.1309 11.6735L15.2578 11.8005H15.7284H16.1989V12.271V12.7416L16.3258 12.8685C16.4379 12.9805 16.4752 12.9955 16.647 12.9955C16.8188 12.9955 16.8561 12.9805 16.9681 12.8685L17.0951 12.7416V12.271V11.8005H17.5656H18.0361L18.1631 11.6735C18.2751 11.5615 18.2901 11.5242 18.2901 11.3524C18.2901 11.1806 18.2751 11.1433 18.1631 11.0313L18.0361 10.9043H17.5656H17.0951V10.4338V9.96325L16.9681 9.83629C16.8561 9.72426 16.8188 9.70932 16.647 9.70932C16.4752 9.70932 16.4379 9.72426 16.3258 9.83629Z" fill="white"/>
<path d="M13.3385 13.4212L13.2116 13.5482V14.0187V14.4892H12.7411H12.2705L12.1436 14.6162C12.0315 14.7282 12.0166 14.7655 12.0166 14.9373C12.0166 15.1091 12.0315 15.1464 12.1436 15.2584L12.2705 15.3854H12.7411H13.2116V15.8559V16.3265L13.3385 16.4534C13.4506 16.5654 13.4879 16.5804 13.6597 16.5804C13.8315 16.5804 13.8688 16.5654 13.9808 16.4534L14.1078 16.3265V15.8559V15.3854H14.5783H15.0488L15.1758 15.2584C15.2878 15.1464 15.3028 15.1091 15.3028 14.9373C15.3028 14.7655 15.2878 14.7282 15.1758 14.6162L15.0488 14.4892H14.5783H14.1078V14.0187V13.5482L13.9808 13.4212C13.8688 13.3092 13.8315 13.2942 13.6597 13.2942C13.4879 13.2942 13.4506 13.3092 13.3385 13.4212Z" fill="white"/>
</svg>
